<mxfile host="app.diagrams.net" modified="2024-03-26T08:14:17.584Z" agent="Mozilla/5.0 (Windows NT 10.0; Win64; x64) AppleWebKit/537.36 (KHTML, like Gecko) Chrome/123.0.0.0 Safari/537.36" etag="yVnKgjSFCfMpaeFzvRY_" version="24.1.0" type="github">
  <diagram name="페이지-1" id="3CyhWmcrjj7tvPvdkZYt">
    <mxGraphModel dx="894" dy="1051" grid="1" gridSize="10" guides="1" tooltips="1" connect="1" arrows="1" fold="1" page="1" pageScale="1" pageWidth="827" pageHeight="1169" math="0" shadow="0">
      <root>
        <mxCell id="0" />
        <mxCell id="1" parent="0" />
        <mxCell id="algtb0g04Lns9EfPQdGI-27" style="edgeStyle=orthogonalEdgeStyle;rounded=0;orthogonalLoop=1;jettySize=auto;html=1;exitX=0.5;exitY=1;exitDx=0;exitDy=0;entryX=0;entryY=0.5;entryDx=0;entryDy=0;" edge="1" parent="1" source="algtb0g04Lns9EfPQdGI-1" target="algtb0g04Lns9EfPQdGI-11">
          <mxGeometry relative="1" as="geometry" />
        </mxCell>
        <mxCell id="algtb0g04Lns9EfPQdGI-28" style="edgeStyle=orthogonalEdgeStyle;rounded=0;orthogonalLoop=1;jettySize=auto;html=1;exitX=0.5;exitY=1;exitDx=0;exitDy=0;entryX=1;entryY=0.5;entryDx=0;entryDy=0;" edge="1" parent="1" source="algtb0g04Lns9EfPQdGI-1" target="algtb0g04Lns9EfPQdGI-10">
          <mxGeometry relative="1" as="geometry" />
        </mxCell>
        <mxCell id="algtb0g04Lns9EfPQdGI-29" style="edgeStyle=orthogonalEdgeStyle;rounded=0;orthogonalLoop=1;jettySize=auto;html=1;exitX=0.5;exitY=1;exitDx=0;exitDy=0;entryX=0;entryY=0.5;entryDx=0;entryDy=0;" edge="1" parent="1" source="algtb0g04Lns9EfPQdGI-1" target="algtb0g04Lns9EfPQdGI-9">
          <mxGeometry relative="1" as="geometry" />
        </mxCell>
        <mxCell id="algtb0g04Lns9EfPQdGI-30" style="edgeStyle=orthogonalEdgeStyle;rounded=0;orthogonalLoop=1;jettySize=auto;html=1;exitX=0.5;exitY=1;exitDx=0;exitDy=0;entryX=1;entryY=0.5;entryDx=0;entryDy=0;" edge="1" parent="1" source="algtb0g04Lns9EfPQdGI-1" target="algtb0g04Lns9EfPQdGI-8">
          <mxGeometry relative="1" as="geometry" />
        </mxCell>
        <mxCell id="algtb0g04Lns9EfPQdGI-31" style="edgeStyle=orthogonalEdgeStyle;rounded=0;orthogonalLoop=1;jettySize=auto;html=1;exitX=0.5;exitY=1;exitDx=0;exitDy=0;entryX=0;entryY=0.5;entryDx=0;entryDy=0;" edge="1" parent="1" source="algtb0g04Lns9EfPQdGI-1" target="algtb0g04Lns9EfPQdGI-7">
          <mxGeometry relative="1" as="geometry" />
        </mxCell>
        <mxCell id="algtb0g04Lns9EfPQdGI-32" style="edgeStyle=orthogonalEdgeStyle;rounded=0;orthogonalLoop=1;jettySize=auto;html=1;exitX=0.5;exitY=1;exitDx=0;exitDy=0;entryX=1;entryY=0.5;entryDx=0;entryDy=0;" edge="1" parent="1" source="algtb0g04Lns9EfPQdGI-1" target="algtb0g04Lns9EfPQdGI-6">
          <mxGeometry relative="1" as="geometry" />
        </mxCell>
        <mxCell id="algtb0g04Lns9EfPQdGI-33" style="edgeStyle=orthogonalEdgeStyle;rounded=0;orthogonalLoop=1;jettySize=auto;html=1;exitX=0.5;exitY=1;exitDx=0;exitDy=0;entryX=0;entryY=0.5;entryDx=0;entryDy=0;" edge="1" parent="1" source="algtb0g04Lns9EfPQdGI-1" target="algtb0g04Lns9EfPQdGI-5">
          <mxGeometry relative="1" as="geometry" />
        </mxCell>
        <mxCell id="algtb0g04Lns9EfPQdGI-34" style="edgeStyle=orthogonalEdgeStyle;rounded=0;orthogonalLoop=1;jettySize=auto;html=1;exitX=0.5;exitY=1;exitDx=0;exitDy=0;entryX=1;entryY=0.5;entryDx=0;entryDy=0;" edge="1" parent="1" source="algtb0g04Lns9EfPQdGI-1" target="algtb0g04Lns9EfPQdGI-4">
          <mxGeometry relative="1" as="geometry" />
        </mxCell>
        <mxCell id="algtb0g04Lns9EfPQdGI-35" style="edgeStyle=orthogonalEdgeStyle;rounded=0;orthogonalLoop=1;jettySize=auto;html=1;exitX=0.5;exitY=1;exitDx=0;exitDy=0;entryX=0;entryY=0.5;entryDx=0;entryDy=0;" edge="1" parent="1" source="algtb0g04Lns9EfPQdGI-1" target="algtb0g04Lns9EfPQdGI-3">
          <mxGeometry relative="1" as="geometry" />
        </mxCell>
        <mxCell id="algtb0g04Lns9EfPQdGI-36" style="edgeStyle=orthogonalEdgeStyle;rounded=0;orthogonalLoop=1;jettySize=auto;html=1;exitX=0.5;exitY=1;exitDx=0;exitDy=0;entryX=1;entryY=0.5;entryDx=0;entryDy=0;" edge="1" parent="1" source="algtb0g04Lns9EfPQdGI-1" target="algtb0g04Lns9EfPQdGI-2">
          <mxGeometry relative="1" as="geometry" />
        </mxCell>
        <mxCell id="algtb0g04Lns9EfPQdGI-1" value="도서" style="rounded=0;whiteSpace=wrap;html=1;" vertex="1" parent="1">
          <mxGeometry x="100" y="40" width="120" height="60" as="geometry" />
        </mxCell>
        <mxCell id="algtb0g04Lns9EfPQdGI-2" value="도서명" style="ellipse;whiteSpace=wrap;html=1;" vertex="1" parent="1">
          <mxGeometry x="20" y="120" width="120" height="80" as="geometry" />
        </mxCell>
        <mxCell id="algtb0g04Lns9EfPQdGI-3" value="저자" style="ellipse;whiteSpace=wrap;html=1;" vertex="1" parent="1">
          <mxGeometry x="180" y="120" width="120" height="80" as="geometry" />
        </mxCell>
        <mxCell id="algtb0g04Lns9EfPQdGI-4" value="출판사" style="ellipse;whiteSpace=wrap;html=1;" vertex="1" parent="1">
          <mxGeometry x="20" y="240" width="120" height="80" as="geometry" />
        </mxCell>
        <mxCell id="algtb0g04Lns9EfPQdGI-5" value="정가" style="ellipse;whiteSpace=wrap;html=1;" vertex="1" parent="1">
          <mxGeometry x="180" y="240" width="120" height="80" as="geometry" />
        </mxCell>
        <mxCell id="algtb0g04Lns9EfPQdGI-6" value="할인율" style="ellipse;whiteSpace=wrap;html=1;" vertex="1" parent="1">
          <mxGeometry x="20" y="360" width="120" height="80" as="geometry" />
        </mxCell>
        <mxCell id="algtb0g04Lns9EfPQdGI-7" value="판매가" style="ellipse;whiteSpace=wrap;html=1;" vertex="1" parent="1">
          <mxGeometry x="180" y="360" width="120" height="80" as="geometry" />
        </mxCell>
        <mxCell id="algtb0g04Lns9EfPQdGI-8" value="마일리지&lt;span style=&quot;white-space: pre;&quot;&gt;&#x9;&lt;/span&gt;" style="ellipse;whiteSpace=wrap;html=1;" vertex="1" parent="1">
          <mxGeometry x="20" y="480" width="120" height="80" as="geometry" />
        </mxCell>
        <mxCell id="algtb0g04Lns9EfPQdGI-9" value="출판일" style="ellipse;whiteSpace=wrap;html=1;" vertex="1" parent="1">
          <mxGeometry x="180" y="480" width="120" height="80" as="geometry" />
        </mxCell>
        <mxCell id="algtb0g04Lns9EfPQdGI-10" value="책 소개" style="ellipse;whiteSpace=wrap;html=1;" vertex="1" parent="1">
          <mxGeometry x="20" y="600" width="120" height="80" as="geometry" />
        </mxCell>
        <mxCell id="algtb0g04Lns9EfPQdGI-22" style="edgeStyle=orthogonalEdgeStyle;rounded=0;orthogonalLoop=1;jettySize=auto;html=1;exitX=0.5;exitY=1;exitDx=0;exitDy=0;entryX=0.5;entryY=0;entryDx=0;entryDy=0;" edge="1" parent="1" source="algtb0g04Lns9EfPQdGI-11" target="algtb0g04Lns9EfPQdGI-14">
          <mxGeometry relative="1" as="geometry">
            <mxPoint x="160" y="819.9999999999998" as="sourcePoint" />
          </mxGeometry>
        </mxCell>
        <mxCell id="algtb0g04Lns9EfPQdGI-23" style="edgeStyle=orthogonalEdgeStyle;rounded=0;orthogonalLoop=1;jettySize=auto;html=1;entryX=0.5;entryY=0;entryDx=0;entryDy=0;" edge="1" parent="1" source="algtb0g04Lns9EfPQdGI-11" target="algtb0g04Lns9EfPQdGI-15">
          <mxGeometry relative="1" as="geometry">
            <mxPoint x="160" y="819.9999999999998" as="sourcePoint" />
          </mxGeometry>
        </mxCell>
        <mxCell id="algtb0g04Lns9EfPQdGI-61" style="edgeStyle=orthogonalEdgeStyle;rounded=0;orthogonalLoop=1;jettySize=auto;html=1;exitX=0.5;exitY=1;exitDx=0;exitDy=0;entryX=1;entryY=0.5;entryDx=0;entryDy=0;" edge="1" parent="1" source="algtb0g04Lns9EfPQdGI-11" target="algtb0g04Lns9EfPQdGI-17">
          <mxGeometry relative="1" as="geometry" />
        </mxCell>
        <mxCell id="algtb0g04Lns9EfPQdGI-62" style="edgeStyle=orthogonalEdgeStyle;rounded=0;orthogonalLoop=1;jettySize=auto;html=1;exitX=0.5;exitY=1;exitDx=0;exitDy=0;entryX=0;entryY=0.5;entryDx=0;entryDy=0;" edge="1" parent="1" source="algtb0g04Lns9EfPQdGI-11" target="algtb0g04Lns9EfPQdGI-16">
          <mxGeometry relative="1" as="geometry" />
        </mxCell>
        <mxCell id="algtb0g04Lns9EfPQdGI-11" value="분류" style="ellipse;whiteSpace=wrap;html=1;" vertex="1" parent="1">
          <mxGeometry x="180" y="600" width="120" height="80" as="geometry" />
        </mxCell>
        <mxCell id="algtb0g04Lns9EfPQdGI-14" value="컴퓨터" style="ellipse;whiteSpace=wrap;html=1;" vertex="1" parent="1">
          <mxGeometry x="100" y="760" width="120" height="80" as="geometry" />
        </mxCell>
        <mxCell id="algtb0g04Lns9EfPQdGI-15" value="경영" style="ellipse;whiteSpace=wrap;html=1;" vertex="1" parent="1">
          <mxGeometry x="260" y="760" width="120" height="80" as="geometry" />
        </mxCell>
        <mxCell id="algtb0g04Lns9EfPQdGI-16" value="문학" style="ellipse;whiteSpace=wrap;html=1;" vertex="1" parent="1">
          <mxGeometry x="260" y="880" width="120" height="80" as="geometry" />
        </mxCell>
        <mxCell id="algtb0g04Lns9EfPQdGI-17" value="어학" style="ellipse;whiteSpace=wrap;html=1;" vertex="1" parent="1">
          <mxGeometry x="100" y="880" width="120" height="80" as="geometry" />
        </mxCell>
        <mxCell id="algtb0g04Lns9EfPQdGI-38" value="회원" style="ellipse;whiteSpace=wrap;html=1;" vertex="1" parent="1">
          <mxGeometry x="460" y="120" width="120" height="80" as="geometry" />
        </mxCell>
        <mxCell id="algtb0g04Lns9EfPQdGI-39" value="비회원" style="ellipse;whiteSpace=wrap;html=1;" vertex="1" parent="1">
          <mxGeometry x="620" y="120" width="120" height="80" as="geometry" />
        </mxCell>
      </root>
    </mxGraphModel>
  </diagram>
</mxfile>
